{"title":"Jasmine V ++ That's Me Right There (2014.RnB)","uid":11434566,"size":39247426,"categoryP":"audio","categoryS":"other","magnet":"?xt=urn:btih:20873ecc5ecd24c23b8d692bb16d429f2f67c382&amp;dn=Jasmine+V+%2B%2B+That%27s+Me+Right+There+%282014.RnB%29&amp;tr=udp%3A%2F%2Ftracker.openbittorrent.com%3A80&amp;tr=udp%3A%2F%2Fopen.demonii.com%3A1337&amp;tr=udp%3A%2F%2Ftracker.coppersurfer.tk%3A6969&amp;tr=udp%3A%2F%2Fexodus.desync.com%3A6969","seeders":9,"leechers":15,"uploader":"MeRaDil","files":-1,"time":1415744698,"description":"JASMINE V - THAT'S ME RIGHT THERE\n\n &lt;a href=&quot;\nhttp://gifyu.com/images/JasmineV.png&quot; rel=&quot;nofollow&quot; target=&quot;_NEW&quot;&gt;\nhttp://gifyu.com/images/JasmineV.png&lt;/a&gt;\n &lt;a href=&quot;\nhttp://gifyu.com/images/JasmineV1.png&quot; rel=&quot;nofollow&quot; target=&quot;_NEW&quot;&gt;\nhttp://gifyu.com/images/JasmineV1.png&lt;/a&gt;\n\niTunes Audio\nGeneral\nComplete name                            : 01 That's Me Right There  ft. Kendrick Lamar.m4a\nFormat                                   : MPEG-4\nFormat profile                           : Apple audio with iTunes info\nCodec ID                                 : M4A \nFile size                                : 7.22 MiB\nDuration                                 : 3mn 30s\nOverall bit rate mode                    : Variable\nOverall bit rate                         : 288 Kbps\nAlbum                                    : That's Me Right There\nTrack name                               : That's Me Right There\nPerformer                                : Jasmine V ft. Kendrick Lamar\nGenre                                    : RnB/Pop\nContentType                              : Music\nRecorded date                            : 2014\nEncoded date                             : UTC 1998-05-08 08:54:40\nTagged date                              : UTC 2014-11-10 07:38:56\nCopyright                                : Jasmine Villegas\nCover                                    : Yes\nRating                                   : None\nMake                                     : Interscope\nrati                                     : (Binary)\naurl                                     : http://www.jasminevmusic.com\nlabl                                     : Interscope\nrelt                                     : USA . november 10 . 2014\nXtra                                     : WM/Publisher\n\nAudio\nID                                       : 1\nFormat                                   : AAC\nFormat/Info                              : Advanced Audio Codec\nFormat profile                           : LC\nCodec ID                                 : 40\nDuration                                 : 3mn 30s\nBit rate mode                            : Variable\nBit rate                                 : 256 Kbps\nMaximum bit rate                         : 304 Kbps\nChannel(s)                               : 2 channels\nChannel positions                        : Front: L R\nSampling rate                            : 44.1 KHz\nCompression mode                         : Lossy\nStream size                              : 6.65 MiB (92%)\nLanguage                                 : English\nEncoded date                             : UTC 1998-05-08 08:54:40\nTagged date                              : UTC 2014-11-10 07:38:56\n\nGeneral\nComplete name                            : 02 Me Without You.m4a\nFormat                                   : MPEG-4\nFormat profile                           : Apple audio with iTunes info\nCodec ID                                 : M4A \nFile size                                : 7.16 MiB\nDuration                                 : 3mn 34s\nOverall bit rate mode                    : Variable\nOverall bit rate                         : 280 Kbps\nAlbum                                    : That's Me Right There\nTrack name                               : Me Without You\nPerformer                                : Jasmine V\nGenre                                    : RnB/Pop\nContentType                              : Music\nRecorded date                            : 2014\nEncoded date                             : UTC 2018-07-21 05:44:48\nTagged date                              : UTC 2014-11-10 07:38:57\nCopyright                                : Jasmine Villegas\nCover                                    : Yes\nMake                                     : Interscope\nrati                                     : (Binary)\naurl                                     : http://www.jasminevmusic.com\nlabl                                     : Interscope\nrelt                                     : USA . november 10 . 2014\nXtra                                     : WM/Publisher\n\nAudio\nID                                       : 1\nFormat                                   : AAC\nFormat/Info                              : Advanced Audio Codec\nFormat profile                           : LC\nCodec ID                                 : 40\nDuration                                 : 3mn 34s\nBit rate mode                            : Variable\nBit rate                                 : 256 Kbps\nMaximum bit rate                         : 335 Kbps\nChannel(s)                               : 2 channels\nChannel positions                        : Front: L R\nSampling rate                            : 44.1 KHz\nCompression mode                         : Lossy\nStream size                              : 6.59 MiB (92%)\nLanguage                                 : English\nEncoded date                             : UTC 2018-07-21 05:44:48\nTagged date                              : UTC 2014-11-10 07:38:57\n\nGeneral\nComplete name                            : 03 Walk Away.m4a\nFormat                                   : MPEG-4\nFormat profile                           : Apple audio with iTunes info\nCodec ID                                 : M4A \nFile size                                : 7.19 MiB\nDuration                                 : 3mn 26s\nOverall bit rate mode                    : Variable\nOverall bit rate                         : 292 Kbps\nAlbum                                    : That's Me Right There\nTrack name                               : Walk Away\nPerformer                                : Jasmine V\nGenre                                    : RnB/Pop\nContentType                              : Music\nRecorded date                            : 2014\nEncoded date                             : UTC 2038-10-03 02:34:56\nTagged date                              : UTC 2014-11-10 07:38:58\nCopyright                                : Jasmine Villegas\nCover                                    : Yes\nMake                                     : Interscope\nrati                                     : (Binary)\naurl                                     : http://www.jasminevmusic.com\nlabl                                     : Interscope\nrelt                                     : USA . november 10 . 2014\nXtra                                     : WM/Publisher\n\nAudio\nID                                       : 1\nFormat                                   : AAC\nFormat/Info                              : Advanced Audio Codec\nFormat profile                           : LC\nCodec ID                                 : 40\nDuration                                 : 3mn 26s\nBit rate mode                            : Variable\nBit rate                                 : 256 Kbps\nMaximum bit rate                         : 331 Kbps\nChannel(s)                               : 2 channels\nChannel positions                        : Front: L R\nSampling rate                            : 44.1 KHz\nCompression mode                         : Lossy\nStream size                              : 6.62 MiB (92%)\nLanguage                                 : English\nEncoded date                             : UTC 2038-10-03 02:34:56\nTagged date                              : UTC 2014-11-10 07:38:58\n\nGeneral\nComplete name                            : 04 I Love Your Crazy.m4a\nFormat                                   : MPEG-4\nFormat profile                           : Apple audio with iTunes info\nCodec ID                                 : M4A \nFile size                                : 5.20 MiB\nDuration                                 : 2mn 32s\nOverall bit rate mode                    : Variable\nOverall bit rate                         : 286 Kbps\nAlbum                                    : That's Me Right There\nTrack name                               : I Love Your Crazy\nPerformer                                : Jasmine V\nGenre                                    : RnB/Pop\nContentType                              : Music\nRecorded date                            : 2014\nTagged date                              : UTC 2014-11-10 07:38:59\nCopyright                                : Jasmine Villegas\nCover                                    : Yes\nMake                                     : Interscope\nrati                                     : (Binary)\naurl                                     : http://www.jasminevmusic.com\nlabl                                     : Interscope\nrelt                                     : USA . november 10 . 2014\nXtra                                     : WM/Publisher\n\nAudio\nID                                       : 1\nFormat                                   : AAC\nFormat/Info                              : Advanced Audio Codec\nFormat profile                           : LC\nCodec ID                                 : 40\nDuration                                 : 2mn 32s\nBit rate mode                            : Variable\nBit rate                                 : 256 Kbps\nMaximum bit rate                         : 363 Kbps\nChannel(s)                               : 2 channels\nChannel positions                        : Front: L R\nSampling rate                            : 44.1 KHz\nCompression mode                         : Lossy\nStream size                              : 4.64 MiB (89%)\nLanguage                                 : English\nTagged date                              : UTC 2014-11-10 07:38:59\n\nGeneral\nComplete name                            : 05 Who That.m4a\nFormat                                   : MPEG-4\nFormat profile                           : Apple audio with iTunes info\nCodec ID                                 : M4A \nFile size                                : 8.98 MiB\nDuration                                 : 4mn 29s\nOverall bit rate mode                    : Variable\nOverall bit rate                         : 280 Kbps\nAlbum                                    : That's Me Right There\nTrack name                               : Who That\nPerformer                                : Jasmine V\nGenre                                    : RnB/Pop\nContentType                              : Music\nRecorded date                            : 2014\nTagged date                              : UTC 2014-11-10 07:39:02\nCopyright                                : Jasmine Villegas\nCover                                    : Yes\nMake                                     : Interscope\nrati                                     : (Binary)\naurl                                     : http://www.jasminevmusic.com\nlabl                                     : Interscope\nrelt                                     : USA . november 10 . 2014\nXtra                                     : WM/Publisher\n\nAudio\nID                                       : 1\nFormat                                   : AAC\nFormat/Info                              : Advanced Audio Codec\nFormat profile                           : LC\nCodec ID                                 : 40\nDuration                                 : 4mn 29s\nBit rate mode                            : Variable\nBit rate                                 : 256 Kbps\nMaximum bit rate                         : 458 Kbps\nChannel(s)                               : 2 channels\nChannel positions                        : Front: L R\nSampling rate                            : 44.1 KHz\nCompression mode                         : Lossy\nStream size                              : 8.40 MiB (94%)\nLanguage                                 : English\nTagged date                              : UTC 2014-11-10 07:39:02\n\nJasmine V * Jasmine Villegas","torrent":{"xt":"urn:btih:20873ecc5ecd24c23b8d692bb16d429f2f67c382","amp;dn":"Jasmine+V+%2B%2B+That%27s+Me+Right+There+%282014.RnB%29","amp;tr":["udp%3A%2F%2Ftracker.openbittorrent.com%3A80","udp%3A%2F%2Fopen.demonii.com%3A1337","udp%3A%2F%2Ftracker.coppersurfer.tk%3A6969","udp%3A%2F%2Fexodus.desync.com%3A6969"],"infoHash":"20873ecc5ecd24c23b8d692bb16d429f2f67c382","infoHashBuffer":{"type":"Buffer","data":[32,135,62,204,94,205,36,194,59,141,105,43,177,109,66,159,47,103,195,130]},"announce":[],"urlList":[]}}